<svg xmlns="http://www.w3.org/2000/svg" aria-hidden="true" style="position:absolute;width:0;height:0;overflow:hidden">
  <defs>
    <symbol id="icon-telegram" viewBox="0 0 28 28">
      <path d="m18.578 20.422 2.297-10.828c.203-.953-.344-1.328-.969-1.094l-13.5 5.203c-.922.359-.906.875-.156 1.109l3.453 1.078 8.016-5.047c.375-.25.719-.109.438.141l-6.484 5.859-.25 3.563c.359 0 .516-.156.703-.344l1.687-1.625 3.5 2.578c.641.359 1.094.172 1.266-.594zM28 14c0 7.734-6.266 14-14 14S0 21.734 0 14 6.266 0 14 0s14 6.266 14 14z"/>
    </symbol>
    <symbol id="icon-mastercard" viewBox="0 0 32 32">
      <path fill="#eb001b" d="M15.124 24.041c.077.065.16.131.241.195a9.854 9.854 0 0 1-5.476 1.651A9.885 9.885 0 0 1 0 16c0-5.46 4.427-9.888 9.888-9.888a9.84 9.84 0 0 1 5.473 1.651c-.08.068-.16.131-.22.2A10.62 10.62 0 0 0 11.46 16c0 3.081 1.335 6.013 3.664 8.041zm6.988-17.929a9.832 9.832 0 0 0-5.473 1.651c.08.068.16.131.22.2A10.62 10.62 0 0 1 20.54 16a10.67 10.67 0 0 1-3.664 8.041c-.077.065-.16.131-.241.195a9.849 9.849 0 0 0 5.476 1.651A9.885 9.885 0 0 0 32 16c0-5.459-4.427-9.888-9.888-9.888zM16 8.232A9.852 9.852 0 0 0 12.226 16 9.85 9.85 0 0 0 16 23.769 9.853 9.853 0 0 0 19.774 16 9.852 9.852 0 0 0 16 8.232z" style="fill:var(--color1, #eb001b)"/>
    </symbol>
    <symbol id="icon-visa" viewBox="0 0 32 32">
      <path fill="#142787" d="M23.26 11.497a6.648 6.648 0 0 0-2.32-.401c-2.56 0-4.367 1.291-4.38 3.14-.016 1.36 1.285 2.125 2.268 2.581 1.009.467 1.347.76 1.344 1.18-.007.636-.807.924-1.549.924-1.021 0-1.581-.143-2.441-.5l-.319-.148-.361 2.131c.621.26 1.741.483 2.9.5 2.721 0 4.5-1.281 4.521-3.252.021-1.084-.68-1.907-2.161-2.584-.899-.44-1.459-.735-1.459-1.181 0-.395.479-.816 1.479-.816a4.754 4.754 0 0 1 1.94.364l.24.108.361-2.059zm6.644-.226h-2c-.623 0-1.088.169-1.361.788l-3.847 8.712h2.721l.544-1.427 3.32.003c.081.333.32 1.424.32 1.424H32zm-17.024-.08h2.591l-1.62 9.505h-2.592l1.621-9.508zm-6.585 5.238.269 1.32 2.535-6.479h2.745l-4.081 9.487H5.024l-2.24-8.035a.532.532 0 0 0-.24-.316A10.943 10.943 0 0 0 0 11.463l.033-.2h4.175c.565.021 1.021.2 1.177.805l.909 4.364zm20.41.97 1.033-2.659c-.013.027.213-.549.344-.907l.177.82.599 2.743h-2.153z" style="fill:var(--color2, #142787)"/>
    </symbol>
    <symbol id="icon-viber" viewBox="0 0 32 32">
      <path fill="#665cac" d="M15.197.003C12.63.038 7.108.459 4.018 3.29 1.725 5.57.923 8.931.83 13.094.75 17.241.657 25.027 8.163 27.149v3.227s-.051 1.293.803 1.56c1.053.333 1.653-.665 2.653-1.732l1.867-2.107c5.133.427 9.067-.559 9.52-.705 1.04-.333 6.908-1.081 7.868-8.869.987-8.041-.48-13.108-3.12-15.401l-.013-.003c-.8-.733-4-3.067-11.16-3.093 0 0-.528-.033-1.384-.021zm.09 2.262c.727-.004 1.173.027 1.173.027 6.053.013 8.948 1.84 9.628 2.453 2.227 1.905 3.371 6.475 2.533 13.189-.8 6.507-5.56 6.92-6.44 7.2-.373.12-3.84.973-8.203.693 0 0-3.252 3.921-4.265 4.935-.16.173-.347.227-.467.2-.173-.04-.227-.253-.213-.547l.027-5.359c-6.361-1.76-5.988-8.403-5.921-11.869.08-3.467.733-6.309 2.667-8.229 2.609-2.36 7.3-2.68 9.481-2.693zm.48 3.467h-.001a.4.4 0 0 0 .001.799l.143-.001c2.034 0 3.88.809 5.232 2.123l-.002-.002c1.453 1.413 2.161 3.307 2.188 5.787a.4.4 0 0 0 .4.4v-.012a.4.4 0 0 0 .4-.4 8.575 8.575 0 0 0-2.415-6.349l.002.002c-1.587-1.547-3.589-2.347-5.948-2.347zm-5.272.92a1.263 1.263 0 0 0-.826.163l.006-.003h-.016c-.547.32-1.051.72-1.531 1.253-.36.427-.561.852-.615 1.265a1.634 1.634 0 0 0 .07.733l-.003-.012.027.013a18.197 18.197 0 0 0 1.646 3.549l-.046-.082a20.684 20.684 0 0 0 3.101 4.237l-.008-.009.04.053.053.04.08.08a20.864 20.864 0 0 0 4.136 3.053l.104.054c1.76.96 2.829 1.413 3.469 1.6v.013c.187.053.357.08.531.08a2.447 2.447 0 0 0 1.471-.631l-.002.002a6.03 6.03 0 0 0 1.24-1.531v-.013c.307-.573.2-1.121-.24-1.495a18.139 18.139 0 0 0-2.781-2.007l-.085-.046c-.68-.373-1.373-.147-1.653.227l-.6.759c-.307.373-.867.32-.867.32l-.016.013c-4.16-1.067-5.267-5.279-5.267-5.279s-.053-.573.333-.867l.747-.6c.36-.293.613-.987.227-1.667a18.073 18.073 0 0 0-2.071-2.887l.017.02a1.127 1.127 0 0 0-.665-.399l-.007-.001zm5.964 1.187a.401.401 0 0 0 .001.8h.001a5.027 5.027 0 0 1 3.532 1.532l.001.001a4.646 4.646 0 0 1 1.199 3.44l.001-.014c.001.22.18.399.4.399l.013.016a.4.4 0 0 0 .4-.4v-.001c.04-1.587-.453-2.92-1.427-3.987s-2.333-1.667-4.067-1.787l-.028-.001-.029.001h.001zm.653 2.158H17.1a.407.407 0 0 0-.012.815h.001c1.32.067 1.96.733 2.04 2.107a.4.4 0 0 0 .4.387h.013a.4.4 0 0 0 .388-.4l-.001-.028v.001c-.093-1.787-1.067-2.788-2.8-2.881h-.016z" style="fill:var(--color3, #665cac)"/>
    </symbol>
    <symbol id="icon-letter" viewBox="0 0 43 32">
      <path  d="M38.667 0H4C1.794 0 0 1.794 0 4v24c0 2.206 1.794 4 4 4h34.667c2.206 0 4-1.794 4-4V4c0-2.206-1.794-4-4-4zm0 2.667c.181 0 .353.038.511.103L21.334 18.236 3.49 2.77a1.32 1.32 0 0 1 .511-.103h34.667zm0 26.666H4A1.334 1.334 0 0 1 2.667 28V5.587L20.46 21.008a1.335 1.335 0 0 0 1.748 0L40.001 5.587V28c0 .736-.598 1.333-1.333 1.333z" />
    </symbol>
    <symbol id="icon-smartphone" viewBox="0 0 20 32">
      <path  d="M17 0H3C1.346 0 0 1.346 0 3v26c0 1.654 1.346 3 3 3h14c1.654 0 3-1.346 3-3V3c0-1.654-1.346-3-3-3zM3 2h14a1 1 0 0 1 1 1v21H2V3a1 1 0 0 1 1-1zm14 28H3a1 1 0 0 1-1-1v-3h16v3a1 1 0 0 1-1 1z" />
      <path d="M4.707 27.478c.391.365.391.956 0 1.321s-1.024.365-1.414 0c-.391-.365-.391-.956 0-1.321s1.024-.365 1.414 0z" />
    </symbol>
    <symbol id="icon-location" viewBox="0 0 32 32">
      <path d="M16 0C10.477 0 6 4.477 6 10c0 10 10 22 10 22s10-12 10-22c0-5.523-4.477-10-10-10zm0 16a6 6 0 1 1 0-12 6 6 0 0 1 0 12z"/>
    </symbol>
    <symbol id="icon-whatsapp" viewBox="0 0 32 32">
      <path d="M27.281 4.65C24.287 1.65 20.306 0 16.062 0 7.324 0 .212 7.112.212 15.856c0 2.794.731 5.525 2.119 7.925L.081 32l8.406-2.206a15.858 15.858 0 0 0 7.575 1.931h.006c8.738 0 15.856-7.113 15.856-15.856 0-4.238-1.65-8.219-4.644-11.219zm-11.212 24.4a13.17 13.17 0 0 1-6.713-1.837l-.481-.288-4.987 1.306 1.331-4.863-.313-.5a13.086 13.086 0 0 1-2.019-7.012c0-7.269 5.912-13.181 13.188-13.181 3.519 0 6.831 1.375 9.319 3.862a13.108 13.108 0 0 1 3.856 9.325c-.006 7.275-5.919 13.188-13.181 13.188zm7.225-9.875c-.394-.2-2.344-1.156-2.706-1.288s-.625-.2-.894.2c-.262.394-1.025 1.288-1.256 1.556-.231.262-.462.3-.856.1s-1.675-.619-3.188-1.969c-1.175-1.05-1.975-2.35-2.206-2.744s-.025-.613.175-.806c.181-.175.394-.463.594-.694s.262-.394.394-.662c.131-.262.069-.494-.031-.694s-.894-2.15-1.219-2.944c-.319-.775-.65-.669-.894-.681-.231-.012-.494-.012-.756-.012s-.694.1-1.056.494c-.363.394-1.387 1.356-1.387 3.306s1.419 3.831 1.619 4.1c.2.262 2.794 4.269 6.769 5.981.944.406 1.681.65 2.256.837.95.3 1.813.256 2.494.156.762-.113 2.344-.956 2.675-1.881s.331-1.719.231-1.881c-.094-.175-.356-.275-.756-.475z"/>
    </symbol>
    <symbol id="icon-number1" viewBox="0 0 32 32">
<path d="M16 3c-7.18 0-13 5.82-13 13s5.82 13 13 13 13-5.82 13-13-5.82-13-13-13zM17.757 22.536h-2.469v-9.305c-0.901 0.841-1.964 1.463-3.188 1.867v-2.234c0.644-0.211 1.344-0.612 2.099-1.202s1.273-1.278 1.555-2.064h2.003v12.938z"></path>
</symbol>
<symbol id="icon-number2" viewBox="0 0 32 32">
<path d="M16 3c-7.18 0-13 5.82-13 13s5.82 13 13 13 13-5.82 13-13-5.82-13-13-13zM20.342 20.426v2.297h-8.656c0.093-0.867 0.374-1.688 0.843-2.465 0.468-0.776 1.393-1.807 2.774-3.090 1.111-1.037 1.793-1.74 2.045-2.109 0.34-0.51 0.51-1.014 0.51-1.512 0-0.551-0.147-0.975-0.441-1.271s-0.7-0.444-1.219-0.444c-0.512 0-0.92 0.156-1.223 0.467s-0.478 0.827-0.523 1.549l-2.469-0.247c0.146-1.359 0.605-2.335 1.378-2.928s1.739-0.888 2.898-0.888c1.27 0 2.268 0.343 2.994 1.028s1.089 1.538 1.089 2.557c0 0.58-0.104 1.132-0.312 1.656s-0.537 1.074-0.988 1.647c-0.299 0.38-0.839 0.929-1.621 1.644-0.781 0.714-1.276 1.188-1.484 1.422s-0.376 0.463-0.505 0.686h4.91z"></path>
</symbol>
<symbol id="icon-number3" viewBox="0 0 32 32">
<path d="M16 3c-7.18 0-13 5.82-13 13s5.82 13 13 13 13-5.82 13-13-5.82-13-13-13zM18.995 21.357c-0.826 0.797-1.854 1.194-3.086 1.194-1.166 0-2.133-0.335-2.9-1.005-0.769-0.67-1.214-1.545-1.337-2.627l2.391-0.289c0.076 0.607 0.281 1.071 0.616 1.393 0.333 0.321 0.738 0.482 1.213 0.482 0.51 0 0.939-0.194 1.289-0.582 0.348-0.387 0.522-0.909 0.522-1.566 0-0.621-0.167-1.115-0.501-1.479-0.335-0.364-0.742-0.545-1.223-0.545-0.317 0-0.695 0.062-1.136 0.184l0.272-1.997c0.668 0.018 1.178-0.127 1.529-0.434s0.526-0.715 0.526-1.224c0-0.433-0.128-0.777-0.385-1.035-0.258-0.257-0.599-0.386-1.025-0.386-0.421 0-0.779 0.146-1.077 0.438s-0.479 0.72-0.544 1.281l-2.281-0.386c0.158-0.782 0.397-1.407 0.717-1.875s0.765-0.835 1.336-1.103 1.212-0.401 1.921-0.401c1.213 0 2.186 0.387 2.918 1.161 0.604 0.633 0.905 1.348 0.905 2.145 0 1.131-0.619 2.034-1.858 2.708 0.739 0.158 1.33 0.513 1.772 1.063 0.443 0.551 0.664 1.215 0.664 1.994 0.001 1.132-0.412 2.095-1.238 2.891z"></path>
</symbol>


  </defs>
</svg>
